<?xml version="1.0" encoding="UTF-8"?>
<svg id="Capa_1" data-name="Capa 1" xmlns="http://www.w3.org/2000/svg" viewBox="0 0 443.9 443.9">
  <defs>
    <style>
      .cls-1 {
        fill: #2b44ff;
      }
    </style>
  </defs>
  <path class="cls-1" d="M221.95,0C99.37,0,0,99.37,0,221.95s99.37,221.95,221.95,221.95,221.95-99.37,221.95-221.95S344.53,0,221.95,0ZM221.95,399.64c-98.14,0-177.69-79.55-177.69-177.69S123.81,44.26,221.95,44.26s177.69,79.55,177.69,177.69-79.55,177.69-177.69,177.69Z"/>
  <g>
    <path class="cls-1" d="M351.62,288.83h-6.72v-136.49c0-10-8.14-18.13-18.13-18.13h-8.92c.98-2.04,1.51-4.31,1.51-6.66,0-5.73-3.14-10.95-8.21-13.64l-49.68-26.32c-1.85-.98-4.15-.27-5.14,1.58-.98,1.85-.28,4.15,1.58,5.14l49.68,26.32c2.61,1.38,4.17,3.97,4.17,6.92s-1.56,5.54-4.16,6.92l-.36.19s0,0-.01,0l-27.25,14.43s-.04.02-.07.03l-20.61,10.92-30.7-35.01c-1.38-1.58-3.78-1.74-5.36-.35-1.58,1.38-1.74,3.78-.35,5.36l29.51,33.66-18.27,9.68c-5.25,2.78-11.52,2.78-16.77,0l-45.78-24.25s-.04-.02-.07-.03l-27.25-14.44s0,0,0,0l-.36-.19c-2.61-1.38-4.17-3.97-4.17-6.92s1.56-5.54,4.16-6.92l73.46-38.92c5.25-2.78,11.52-2.78,16.77,0l10.52,5.57c1.85.98,4.15.28,5.14-1.58.98-1.85.28-4.15-1.58-5.14l-10.52-5.57c-7.48-3.96-16.4-3.96-23.88,0l-73.47,38.92c-5.06,2.68-8.2,7.91-8.2,13.64,0,2.35.54,4.62,1.51,6.66h-8.92c-10,0-18.13,8.13-18.13,18.13v136.49h-6.72c-2.1,0-3.8,1.7-3.8,3.8v8.42c0,13.59,11.05,24.64,24.64,24.64h210.08c13.59,0,24.64-11.05,24.64-24.64v-8.42c0-2.1-1.7-3.8-3.8-3.8ZM258.42,222.92l4.95,8.58c1.02,1.77.34,3.34,0,3.93-.34.59-1.36,1.96-3.4,1.96h-3.1c-2.05,0-3.06-1.37-3.4-1.96-.34-.59-1.02-2.16,0-3.93l4.95-8.58ZM262.22,167.11l15.72-8.33v15.09c0,10.83-6.12,20.55-15.72,25.16v-31.92ZM225.74,183.08c4.1,0,8.2-.99,11.94-2.97l16.94-8.97v30.84c-9.3,3.1-18.99,4.67-28.88,4.67-12.12,0-23.93-2.35-35.1-7-10.39-4.32-17.1-14.44-17.1-25.78v-15.09l40.26,21.33c3.74,1.98,7.84,2.97,11.94,2.97ZM114.18,152.34c0-5.81,4.73-10.53,10.54-10.53h16.79l19.12,10.13h-32.52c-2.1,0-3.8,1.7-3.8,3.8v119.16c0,2.1,1.7,3.8,3.8,3.8h20.05c2.1,0,3.8-1.7,3.8-3.8s-1.7-3.8-3.8-3.8h-16.26v-111.56h34.03v14.33c0,14.43,8.55,27.3,21.78,32.8,12.1,5.03,24.89,7.58,38.02,7.58,9.87,0,19.55-1.44,28.88-4.29v4.35l-7.74,13.4c-2.08,3.61-2.08,7.92,0,11.53,2.08,3.61,5.82,5.76,9.98,5.76h3.1c4.17,0,7.9-2.15,9.98-5.76,2.08-3.61,2.08-7.92,0-11.53l-7.73-13.4v-7.02c.51-.2,1.03-.41,1.54-.62,13.23-5.5,21.78-18.37,21.78-32.8v-14.33h34.03v111.56h-156.21c-2.1,0-3.8,1.7-3.8,3.8s1.7,3.8,3.8,3.8h160.01c2.1,0,3.8-1.7,3.8-3.8v-119.16c0-2.1-1.7-3.8-3.8-3.8h-32.52l19.12-10.13h16.79c5.81,0,10.54,4.72,10.54,10.53v136.49H114.18v-136.49ZM249.23,296.43c-1.4,4.09-5.29,7.03-9.84,7.03h-27.31c-4.56,0-8.44-2.94-9.84-7.03h46.99ZM347.82,301.05c0,9.4-7.64,17.04-17.04,17.04H120.7c-9.4,0-17.04-7.64-17.04-17.04v-4.62h6.68s.03,0,.04,0h84.03c1.58,8.32,8.91,14.63,17.68,14.63h27.31c8.77,0,16.1-6.31,17.68-14.63h84.03s.03,0,.04,0h6.68v4.62Z"/>
    <path class="cls-1" d="M226.89,257.17c0-2.1-1.7-3.8-3.8-3.8h-76.06c-2.1,0-3.8,1.7-3.8,3.8s1.7,3.8,3.8,3.8h76.06c2.1,0,3.8-1.7,3.8-3.8Z"/>
    <path class="cls-1" d="M147.03,244.99h50.85c2.1,0,3.8-1.7,3.8-3.8s-1.7-3.8-3.8-3.8h-50.85c-2.1,0-3.8,1.7-3.8,3.8s1.7,3.8,3.8,3.8Z"/>
  </g>
</svg>