<?xml version="1.0" encoding="UTF-8"?>
<svg id="Capa_1" data-name="Capa 1" xmlns="http://www.w3.org/2000/svg" viewBox="0 0 375.79 105.08">
  <defs>
    <style>
      .cls-1 {
        fill: #f7f7f7;
      }
    </style>
  </defs>
  <g>
    <path class="cls-1" d="M132.24,31.02v21.53c0,2.17.59,3.85,1.78,5.05,1.19,1.2,2.74,1.81,4.66,1.81s3.47-.6,4.66-1.81c1.19-1.21,1.78-2.89,1.78-5.05v-21.53h9.53v22c0,3.04-.66,5.63-1.99,7.78-1.33,2.15-3.19,3.78-5.6,4.9-2.41,1.12-5.2,1.68-8.38,1.68s-5.97-.56-8.38-1.68c-2.41-1.12-4.28-2.75-5.6-4.9-1.33-2.15-1.99-4.74-1.99-7.78v-22h9.53Z"/>
    <path class="cls-1" d="M159.27,64.44l3.14-7.18c.94.56,2.24,1.07,3.9,1.55,1.66.47,3.12.71,4.37.71,1.4,0,2.51-.29,3.35-.86s1.26-1.21,1.26-1.91c0-.45-.31-.9-.92-1.34-.61-.44-1.6-1.06-2.96-1.86l-1.62-.94c-2.37-1.4-4.23-2.56-5.55-3.48-1.33-.93-2.51-2.12-3.56-3.59-1.05-1.47-1.57-3.12-1.57-4.98,0-1.96.55-3.71,1.65-5.26,1.1-1.55,2.65-2.77,4.63-3.64,1.99-.87,4.31-1.31,6.97-1.31,1.81,0,3.67.26,5.58.79,1.9.52,3.54,1.24,4.9,2.15l-2.83,6.44c-1.85-.63-3.27-1.05-4.27-1.26-1-.21-2.09-.31-3.27-.31-1.05,0-1.9.24-2.54.73-.65.49-.97,1.08-.97,1.78,0,.52.27.99.81,1.39.54.4,1.44.94,2.7,1.6l1.89,1.05c2.2,1.26,4.03,2.42,5.5,3.48,1.47,1.07,2.71,2.32,3.75,3.77,1.03,1.45,1.54,3.08,1.54,4.9,0,2.03-.58,3.82-1.73,5.4-1.15,1.57-2.8,2.81-4.95,3.72s-4.65,1.36-7.52,1.36c-1.85,0-3.92-.28-6.21-.84-2.29-.56-4.11-1.24-5.47-2.04Z"/>
    <path class="cls-1" d="M203.06,66.64h-13.46V31.02h12.41c4.22,0,7.73.86,10.5,2.57,2.78,1.71,4.16,4.28,4.16,7.7,0,1.26-.3,2.39-.89,3.4-.59,1.01-1.4,2.03-2.41,3.04,1.47,1.01,2.63,2.23,3.48,3.67.85,1.43,1.28,2.97,1.28,4.61,0,3.77-1.42,6.49-4.27,8.14-2.85,1.66-6.45,2.49-10.82,2.49ZM201.7,38.51h-2.57v6.02h2.15c1.57,0,2.89-.24,3.95-.71,1.07-.47,1.6-1.16,1.6-2.07,0-1.05-.45-1.85-1.36-2.41-.91-.56-2.17-.84-3.77-.84ZM203.16,52.02h-4.03v7.12h4.14c1.54,0,2.76-.29,3.67-.86.91-.58,1.36-1.4,1.36-2.49,0-1.19-.45-2.11-1.36-2.78-.91-.66-2.17-1-3.77-1Z"/>
    <path class="cls-1" d="M238.36,30.29c3.77,0,7.04.8,9.82,2.41,2.78,1.61,4.91,3.81,6.39,6.6,1.48,2.79,2.23,5.9,2.23,9.32,0,3.63-.78,6.87-2.33,9.72-1.55,2.85-3.73,5.06-6.52,6.65-2.79,1.59-5.99,2.38-9.59,2.38s-6.94-.81-9.72-2.44c-2.78-1.62-4.91-3.83-6.42-6.63-1.5-2.79-2.25-5.9-2.25-9.32,0-3.6.79-6.82,2.36-9.66,1.57-2.85,3.75-5.06,6.55-6.65,2.79-1.59,5.95-2.38,9.48-2.38ZM229.77,48.93c0,3.07.76,5.59,2.28,7.54,1.52,1.96,3.61,2.93,6.26,2.93s4.64-.93,6.26-2.8c1.62-1.87,2.44-4.53,2.44-7.99,0-3.04-.78-5.53-2.33-7.46-1.55-1.94-3.62-2.91-6.21-2.91-1.61,0-3.06.45-4.37,1.34-1.31.89-2.36,2.15-3.14,3.77-.79,1.62-1.18,3.48-1.18,5.58Z"/>
    <path class="cls-1" d="M269.73,66.64h-9.53v-25.4h5.66l1.68,2.62c3.7-2.3,7.16-3.46,10.37-3.46s5.38.9,6.91,2.7c1.54,1.8,2.31,4.18,2.31,7.15v16.39h-9.53v-15.5c0-.87-.21-1.6-.63-2.17s-1.12-.86-2.1-.86c-.56,0-1.34.15-2.36.45-1.01.3-1.94.64-2.78,1.02v17.07Z"/>
    <path class="cls-1" d="M291.89,66.64V30.23l9.53-.58v36.98h-9.53Z"/>
    <path class="cls-1" d="M311.11,37.78c-1.4,0-2.6-.51-3.61-1.52-1.01-1.01-1.52-2.22-1.52-3.61s.51-2.66,1.52-3.69c1.01-1.03,2.22-1.54,3.61-1.54s2.66.52,3.69,1.54c1.03,1.03,1.54,2.26,1.54,3.69s-.52,2.6-1.54,3.61c-1.03,1.01-2.26,1.52-3.69,1.52ZM306.4,66.64v-25.4h9.53v25.4h-9.53Z"/>
    <path class="cls-1" d="M329.91,66.64h-9.53v-25.4h5.66l1.68,2.62c3.7-2.3,7.16-3.46,10.37-3.46s5.38.9,6.91,2.7c1.54,1.8,2.31,4.18,2.31,7.15v16.39h-9.53v-15.5c0-.87-.21-1.6-.63-2.17s-1.12-.86-2.1-.86c-.56,0-1.34.15-2.36.45-1.01.3-1.94.64-2.78,1.02v17.07Z"/>
    <path class="cls-1" d="M375.79,56.32h-15.45c.35,1.08,1,1.93,1.96,2.54.96.61,2.23.92,3.8.92,2.41,0,4.73-.58,6.97-1.73l2.67,6.44c-1.05.77-2.56,1.41-4.53,1.94-1.97.52-3.99.79-6.05.79-2.97,0-5.6-.51-7.88-1.52s-4.08-2.52-5.37-4.53c-1.29-2.01-1.94-4.41-1.94-7.2s.59-5.17,1.78-7.23c1.19-2.06,2.82-3.64,4.9-4.74,2.08-1.1,4.41-1.65,6.99-1.65s4.84.59,6.65,1.78c1.81,1.19,3.19,2.78,4.11,4.77.93,1.99,1.39,4.21,1.39,6.65v2.78ZM360.08,51.6h6.6c0-.87-.28-1.69-.84-2.46-.56-.77-1.38-1.15-2.46-1.15-.87,0-1.65.37-2.33,1.1-.68.73-1,1.57-.97,2.51Z"/>
  </g>
  <g>
    <path class="cls-1" d="M52.54,0C23.52,0,0,23.52,0,52.54s23.52,52.54,52.54,52.54,52.54-23.52,52.54-52.54S81.56,0,52.54,0ZM52.54,94.61c-23.23,0-42.06-18.83-42.06-42.06S29.31,10.48,52.54,10.48s42.06,18.83,42.06,42.06-18.83,42.06-42.06,42.06Z"/>
    <g>
      <path class="cls-1" d="M83.24,68.38h-1.59v-32.31c0-2.37-1.93-4.29-4.29-4.29h-2.11c.23-.48.36-1.02.36-1.58,0-1.36-.74-2.59-1.94-3.23l-11.76-6.23c-.44-.23-.98-.07-1.22.37-.23.44-.07.98.37,1.22l11.76,6.23c.62.33.99.94.99,1.64s-.37,1.31-.99,1.64l-.09.05s0,0,0,0l-6.45,3.42s-.01,0-.02,0l-4.88,2.58-7.27-8.29c-.33-.37-.9-.41-1.27-.08s-.41.9-.08,1.27l6.99,7.97-4.33,2.29c-1.24.66-2.73.66-3.97,0l-10.84-5.74s-.01,0-.02,0l-6.45-3.42s0,0,0,0l-.09-.05c-.62-.33-.99-.94-.99-1.64s.37-1.31.99-1.64l17.39-9.21c1.24-.66,2.73-.66,3.97,0l2.49,1.32c.44.23.98.07,1.22-.37.23-.44.07-.98-.37-1.22l-2.49-1.32c-1.77-.94-3.88-.94-5.65,0l-17.39,9.21c-1.2.64-1.94,1.87-1.94,3.23,0,.56.13,1.09.36,1.58h-2.11c-2.37,0-4.29,1.93-4.29,4.29v32.31h-1.59c-.5,0-.9.4-.9.9v1.99c0,3.22,2.62,5.83,5.83,5.83h49.73c3.22,0,5.83-2.62,5.83-5.83v-1.99c0-.5-.4-.9-.9-.9ZM61.18,52.77l1.17,2.03c.24.42.08.79,0,.93-.08.14-.32.47-.81.47h-.73c-.48,0-.72-.33-.81-.47-.08-.14-.24-.51,0-.93l1.17-2.03ZM62.08,39.56l3.72-1.97v3.57c0,2.56-1.45,4.86-3.72,5.96v-7.56ZM53.44,43.34c.97,0,1.94-.23,2.83-.7l4.01-2.12v7.3c-2.2.73-4.49,1.11-6.84,1.11-2.87,0-5.67-.56-8.31-1.66-2.46-1.02-4.05-3.42-4.05-6.1v-3.57l9.53,5.05c.88.47,1.86.7,2.83.7ZM27.03,36.06c0-1.37,1.12-2.49,2.49-2.49h3.97l4.53,2.4h-7.7c-.5,0-.9.4-.9.9v28.21c0,.5.4.9.9.9h4.75c.5,0,.9-.4.9-.9s-.4-.9-.9-.9h-3.85v-26.41h8.06v3.39c0,3.42,2.02,6.46,5.16,7.76,2.86,1.19,5.89,1.79,9,1.79,2.34,0,4.63-.34,6.84-1.02v1.03l-1.83,3.17c-.49.85-.49,1.87,0,2.73.49.85,1.38,1.36,2.36,1.36h.73c.99,0,1.87-.51,2.36-1.36.49-.85.49-1.87,0-2.73l-1.83-3.17v-1.66c.12-.05.24-.1.36-.15,3.13-1.3,5.16-4.35,5.16-7.76v-3.39h8.06v26.41h-36.98c-.5,0-.9.4-.9.9s.4.9.9.9h37.88c.5,0,.9-.4.9-.9v-28.21c0-.5-.4-.9-.9-.9h-7.7l4.53-2.4h3.97c1.38,0,2.49,1.12,2.49,2.49v32.31H27.03v-32.31ZM59,70.17c-.33.97-1.25,1.66-2.33,1.66h-6.46c-1.08,0-2-.7-2.33-1.66h11.12ZM82.34,71.27c0,2.22-1.81,4.03-4.03,4.03H28.57c-2.22,0-4.03-1.81-4.03-4.03v-1.09h1.58s0,0,.01,0h19.89c.37,1.97,2.11,3.46,4.19,3.46h6.46c2.08,0,3.81-1.49,4.19-3.46h19.89s0,0,.01,0h1.58v1.09Z"/>
      <path class="cls-1" d="M53.71,60.88c0-.5-.4-.9-.9-.9h-18.01c-.5,0-.9.4-.9.9s.4.9.9.9h18.01c.5,0,.9-.4.9-.9Z"/>
      <path class="cls-1" d="M34.81,58h12.04c.5,0,.9-.4.9-.9s-.4-.9-.9-.9h-12.04c-.5,0-.9.4-.9.9s.4.9.9.9Z"/>
    </g>
  </g>
</svg>